PathFileType	4	(X/Y/Z)	/Users/itak/Documents/Research/Walk-IL/dataset/trc/00269_00010.trc
DataRate	CameraRate	NumFrames	NumMarkers	Units	OrigDataRate	OrigDataStartFrame	OrigNumFrames
100.000000	100.000000	4	53	mm	100.000000	55	447
Frame#	Time	RPSI			LPSI			L3			STRN			T10			C7			CLAV			RBAK			LBAK			LSHO			LUPA			LAEL			LAOL			LWTS			LWPS			LFRA			LHPS			LHTS			RSHO			RUPA			RAEL			RAOL			RWTS			RWPS			RFRA			RIFD			RHTS			RHPS			RBHD			LFHD			RFHD			LBHD			LHIP			RHIP			RASI			LKNE			LTHI			LANK			LTIP			LTOE			LMT1			LMT5			LHEE			RKNE			RTHI			RANK			RTIP			RTOE			RMT1			RMT5			RHEE			LIFD			LASI			
		X1	Y1	Z1	X2	Y2	Z2	X3	Y3	Z3	X4	Y4	Z4	X5	Y5	Z5	X6	Y6	Z6	X7	Y7	Z7	X8	Y8	Z8	X9	Y9	Z9	X10	Y10	Z10	X11	Y11	Z11	X12	Y12	Z12	X13	Y13	Z13	X14	Y14	Z14	X15	Y15	Z15	X16	Y16	Z16	X17	Y17	Z17	X18	Y18	Z18	X19	Y19	Z19	X20	Y20	Z20	X21	Y21	Z21	X22	Y22	Z22	X23	Y23	Z23	X24	Y24	Z24	X25	Y25	Z25	X26	Y26	Z26	X27	Y27	Z27	X28	Y28	Z28	X29	Y29	Z29	X30	Y30	Z30	X31	Y31	Z31	X32	Y32	Z32	X33	Y33	Z33	X34	Y34	Z34	X35	Y35	Z35	X36	Y36	Z36	X37	Y37	Z37	X38	Y38	Z38	X39	Y39	Z39	X40	Y40	Z40	X41	Y41	Z41	X42	Y42	Z42	X43	Y43	Z43	X44	Y44	Z44	X45	Y45	Z45	X46	Y46	Z46	X47	Y47	Z47	X48	Y48	Z48	X49	Y49	Z49	X50	Y50	Z50	X51	Y51	Z51	X52	Y52	Z52	X53	Y53	Z53	

56	0.55	845.8046875	991.2691040039062	94.86721038818359	849.2328491210938	981.4818115234375	-79.71959686279297	867.948974609375	1068.269653320312	5.229956150054932	1130.69384765625	1239.738159179688	5.341197490692139	861.3059692382812	1188.198364257812	3.776961088180542	914.7300415039062	1428.267700195312	-15.59328269958496	1071.316040039062	1342.712890625	-1.707945704460144	856.8955078125	1296.625	67.11174774169922	904.153564453125	1390.946899414062	-122.178466796875	999.3223266601562	1396.078979492188	-169.3531951904297	975.9209594726562	1279.365600585938	-246.2790222167969	974.6595458984375	1077.276489257812	-265.9171447753906	903.1290893554688	1065.962524414062	-216.4888458251953	1058.596069335938	864.28564453125	-210.0910034179688	1031.952880859375	851.1205444335938	-275.3041381835938	991.766845703125	975.3267211914062	-272.5763244628906	1041.4638671875	763.2810668945312	-272.4210815429688	1090.1982421875	767.3816528320312	-228.4083099365234	982.6159057617188	1409.059814453125	147.1840667724609	977.577880859375	1354.493896484375	218.58544921875	963.33447265625	1089.19970703125	275.6415100097656	914.8726196289062	1080.486938476562	192.2491912841797	1061.889770507812	869.83349609375	214.9680633544922	1027.087646484375	863.5567016601562	292.1540832519531	988.3311767578125	1021.421569824219	285.9166564941406	1076.255126953125	686.66943359375	214.5227203369141	1099.03857421875	756.4696044921875	230.1030426025391	1055.763916015625	753.6041259765625	285.4696655273438	916.4974365234375	1567.32373046875	52.3940544128418	1077.300048828125	1633.8857421875	-68.63140869140625	1077.112426757812	1634.039184570312	24.29251480102539	919.9114990234375	1557.550537109375	-93.0682373046875	923.2973022460938	936.4772338867188	-173.3438262939453	945.7765502929688	947.7697143554688	200.6647033691406	1066.709594726562	956.5247192382812	132.9257049560547	1061.722290039062	481.0946350097656	-159.8017883300781	1029.865356445312	620.2554931640625	-174.6402740478516	929.2018432617188	46.36627960205078	-150.9432678222656	991.4940185546875	259.6095581054688	-168.2094573974609	1134.8740234375	26.21486854553223	-91.09508514404297	1062.678466796875	21.82419013977051	-52.57575607299805	1052.07666015625	34.22965621948242	-163.2174072265625	882.1320190429688	44.40168380737305	-93.18408203125	1005.931213378906	475.0354919433594	154.6989288330078	1023.085571289062	737.1295166015625	194.2684020996094	927.9783325195312	40.82522201538086	116.2191314697266	1011.241638183594	349.8727111816406	136.5933685302734	1123.289916992188	31.87895965576172	61.6326789855957	1063.420776367188	28.76795387268066	23.54186820983887	1030.65283203125	27.22175216674805	135.8165283203125	874.7659301757812	36.51503753662109	68.11208343505859	1074.541748046875	676.340576171875	-209.9931335449219	1058.611083984375	952.5518188476562	-118.6172103881836	
57	0.5600000000000001	843.0771484375	990.8550415039062	96.33671569824219	845.7426147460938	980.5499877929688	-78.2813720703125	865.3463745117188	1068.334716796875	6.826169967651367	1129.435791015625	1238.331298828125	6.123147964477539	859.4545288085938	1188.7685546875	5.40215539932251	914.6087036132812	1428.364624023438	-14.27515411376953	1070.690673828125	1341.650512695312	-0.8041355609893799	856.236328125	1297.301025390625	68.73814392089844	903.5550537109375	1391.046997070312	-120.8066940307617	998.639892578125	1395.460205078125	-168.1644592285156	974.3863525390625	1278.9638671875	-245.0638122558594	971.8601684570312	1076.991821289062	-264.7574462890625	900.3190307617188	1065.926025390625	-215.2260284423828	1056.402709960938	864.4461059570312	-209.2899780273438	1029.453735351562	851.1152954101562	-274.3389587402344	988.9451904296875	975.2203369140625	-271.5082397460938	1039.300170898438	763.2669067382812	-271.3910522460938	1088.312744140625	767.7030029296875	-227.7010955810547	983.1527709960938	1408.795532226562	148.2476348876953	978.0292358398438	1354.352294921875	219.7311096191406	962.13427734375	1089.224365234375	277.1264343261719	913.3950805664062	1080.650390625	193.9297943115234	1060.557250976562	869.9713745117188	216.40234375	1025.818603515625	863.6051025390625	293.6025390625	986.8395385742188	1021.403930664062	287.4003295898438	1075.10693359375	686.819580078125	215.8389739990234	1097.833862304688	756.6375122070312	231.4782257080078	1054.551391601562	753.686767578125	286.8327026367188	915.9581909179688	1566.498657226562	53.31874847412109	1076.345947265625	1633.399169921875	-68.04782867431641	1076.286987304688	1633.75244140625	24.74652671813965	919.216796875	1556.473510742188	-92.21898651123047	920.0557250976562	935.5526733398438	-171.9020538330078	943.371826171875	947.6192626953125	201.9627685546875	1064.222290039062	956.3367919921875	134.0405883789062	1065.442016601562	481.9177551269531	-160.0372467041016	1030.493041992188	620.5360107421875	-174.3292236328125	929.762451171875	47.86102676391602	-150.8003845214844	993.7177734375	260.7470397949219	-168.4835968017578	1135.101440429688	26.18329811096191	-91.13961029052734	1062.985717773438	22.26729583740234	-52.65161514282227	1052.403686523438	34.49080276489258	-163.3808898925781	882.7362670898438	46.75928497314453	-93.00508117675781	1004.647338867188	475.0294494628906	155.7692108154297	1021.117797851562	737.242919921875	195.5703125	927.9268798828125	40.65677261352539	116.3356628417969	1010.330444335938	349.8451538085938	137.3766632080078	1123.278930664062	31.87909698486328	61.7318115234375	1063.439819335938	28.83407592773438	23.59258270263672	1030.62646484375	27.18273735046387	135.9000701904297	874.8341064453125	36.41620635986328	68.17426300048828	1073.244506835938	676.1091918945312	-208.5773315429688	1055.359985351562	952.0042114257812	-117.4667358398438	
58	0.5700000000000001	840.2725830078125	990.4771728515625	97.8603515625	842.1897583007812	979.5980834960938	-76.77753448486328	862.6974487304688	1068.363525390625	8.475621223449707	1128.10498046875	1236.827392578125	6.892010688781738	857.4977416992188	1189.283935546875	7.06615686416626	914.4375	1428.397216796875	-12.92580223083496	1070.006958007812	1340.499633789062	0.09447654336690903	855.5746459960938	1297.908447265625	70.42696380615234	902.8773803710938	1391.074462890625	-119.3889923095703	997.8717651367188	1394.762817382812	-166.9469604492188	972.741943359375	1278.489501953125	-243.8160552978516	968.9422607421875	1076.6416015625	-263.5532531738281	897.38671875	1065.817260742188	-213.9278564453125	1054.085693359375	864.547607421875	-208.4630126953125	1026.844360351562	851.055908203125	-273.3528442382812	986.0015869140625	975.0653076171875	-270.4151916503906	1037.0263671875	763.1908569335938	-270.3372192382812	1086.313110351562	767.9835205078125	-226.9817962646484	983.6961669921875	1408.466430664062	149.3237762451172	978.5038452148438	1354.153198242188	220.8956756591797	960.8411865234375	1089.20849609375	278.639404296875	911.8101806640625	1080.789794921875	195.6286468505859	1059.159423828125	870.0857543945312	217.8518676757812	1024.452026367188	863.6116943359375	295.047607421875	985.2811889648438	1021.349914550781	288.9174194335938	1073.928955078125	686.9580078125	217.1490173339844	1096.59619140625	756.7919311523438	232.8671875	1053.306518554688	753.7446899414062	288.2044982910156	915.3780517578125	1565.60693359375	54.25772857666016	1075.3681640625	1632.841918945312	-67.45512390136719	1075.4228515625	1633.387084960938	25.22024917602539	918.4901733398438	1555.322998046875	-91.36186218261719	916.6017456054688	934.5785522460938	-170.4371185302734	940.8426513671875	947.46337890625	203.2672576904297	1061.6240234375	956.0807495117188	135.1364593505859	1069.4453125	482.9474792480469	-160.4992065429688	1031.277709960938	620.967529296875	-174.1230010986328	930.4329223632812	49.63251876831055	-150.7139587402344	996.1351318359375	262.1533203125	-168.8781585693359	1135.342529296875	26.16061210632324	-91.17177581787109	1063.324462890625	22.8061408996582	-52.70236968994141	1052.78466796875	34.77825546264648	-163.5673370361328	883.4814453125	49.5366096496582	-92.88200378417969	1003.254211425781	475.0060424804688	156.8955383300781	1018.989013671875	737.3413696289062	196.9316101074219	927.8410034179688	40.40090179443359	116.4918670654297	1009.352905273438	349.8069152832031	138.2018585205078	1123.26123046875	31.88235855102539	61.83628082275391	1063.45556640625	28.90304946899414	23.64939880371094	1030.592895507812	27.1386604309082	136.0073547363281	874.9086303710938	36.29476165771484	68.24182891845703	1071.759155273438	675.736572265625	-207.1563110351562	1051.959350585938	951.3566284179688	-116.3314590454102	
59	0.58	837.3960571289062	990.1412353515625	99.43161010742188	838.5952758789062	978.6390380859375	-75.209228515625	859.9896850585938	1068.35009765625	10.16619873046875	1126.702026367188	1235.237182617188	7.64338207244873	855.4493408203125	1189.729736328125	8.764166831970215	914.20263671875	1428.353881835938	-11.54744243621826	1069.260131835938	1339.26611328125	0.9846610426902771	854.90185546875	1298.42236328125	72.17388916015625	902.103515625	1391.020141601562	-117.929443359375	997.0001220703125	1393.985473632812	-165.7074279785156	970.9722290039062	1277.937744140625	-242.5392608642578	965.9086303710938	1076.221435546875	-262.3070678710938	894.33837890625	1065.63134765625	-212.59521484375	1051.639892578125	864.5870971679688	-207.6135559082031	1024.126220703125	850.936767578125	-272.3475952148438	982.9369506835938	974.85009765625	-269.2959899902344	1034.641967773438	763.0487670898438	-269.2649536132812	1084.1875	768.1943359375	-226.2364807128906	984.21923828125	1408.068725585938	150.4085845947266	978.9794311523438	1353.890380859375	222.0745391845703	959.465087890625	1089.1474609375	280.1844482421875	910.1527709960938	1080.897094726562	197.3578338623047	1057.69189453125	870.1663818359375	219.3120727539062	1022.994567871094	863.5704956054688	296.4909362792969	983.6665649414062	1021.254577636719	290.4694213867188	1072.701049804688	687.0740966796875	218.448974609375	1095.310791015625	756.9188842773438	234.2616424560547	1052.01806640625	753.7669677734375	289.580322265625	914.755859375	1564.650634765625	55.19875717163086	1074.365478515625	1632.216552734375	-66.85464477539062	1074.520263671875	1632.927856445312	25.72622680664062	917.7214965820312	1554.10693359375	-90.49172973632812	912.94091796875	933.5631713867188	-168.9503784179688	938.2151489257812	947.3013916015625	204.5848236083984	1058.923706054688	955.7527465820312	136.2099761962891	1073.692016601562	484.20654296875	-161.1998748779297	1032.23974609375	621.554443359375	-174.0305328369141	931.2361450195312	51.68842315673828	-150.7333068847656	998.7410278320312	263.8548278808594	-169.4223937988281	1135.594848632812	26.1502742767334	-91.19252777099609	1063.695678710938	23.4686279296875	-52.74323272705078	1053.240478515625	35.08389282226562	-163.7819671630859	884.3897705078125	52.74407196044922	-92.86280822753906	1001.740905761719	474.9652404785156	158.0617980957031	1016.695922851562	737.42041015625	198.3317260742188	927.71630859375	40.05265426635742	116.6846923828125	1008.303161621094	349.7701721191406	139.0545806884766	1123.237182617188	31.88930320739746	61.94128036499023	1063.465942382812	28.97190093994141	23.70954895019531	1030.552001953125	27.0941047668457	136.1376953125	874.9828491210938	36.15362930297852	68.30821990966797	1070.034423828125	675.266357421875	-205.7782592773438	1048.430786132812	950.6045532226562	-115.2136459350586	
